PathFileType	4	(X/Y/Z)	Patient4_TMGait_0pt4_01_left_23.trc.trc
DataRate	CameraRate	NumFrames	NumMarkers	Units	OrigDataRate	OrigDataStartFrame	OrigNumFrames
78.212290502793	78.212290502793	6	33	mm	78.212290502793	36	       141
Frame#	Time	Sacral			L.Shoulder			Chest			R.Shoulder			Neck			R.ASIS			L.ASIS			R.Thigh.Superior			R.Thigh.Lateral			R.Thigh.Inferior			R.Patella			L.Thigh.Superior			L.Thigh.Lateral			L.Thigh.Inferior			L.Patella			L.Shank.Superior			L.Shank.Lateral			L.Shank.Inferior			R.Shank.Superior			R.Shank.Lateral			R.Shank.Inferior			R.Heel			R.Midfoot.Superior			R.Midfoot.Lateral			R.Toe			L.Heel			L.Midfoot.Lateral			L.Midfoot.Superior			L.Toe			L.Elbow			L.Wrist			R.Elbow			R.Wrist			
		X1	Y1	Z1	X2	Y2	Z2	X3	Y3	Z3	X4	Y4	Z4	X5	Y5	Z5	X6	Y6	Z6	X7	Y7	Z7	X8	Y8	Z8	X9	Y9	Z9	X10	Y10	Z10	X11	Y11	Z11	X12	Y12	Z12	X13	Y13	Z13	X14	Y14	Z14	X15	Y15	Z15	X16	Y16	Z16	X17	Y17	Z17	X18	Y18	Z18	X19	Y19	Z19	X20	Y20	Z20	X21	Y21	Z21	X22	Y22	Z22	X23	Y23	Z23	X24	Y24	Z24	X25	Y25	Z25	X26	Y26	Z26	X27	Y27	Z27	X28	Y28	Z28	X29	Y29	Z29	X30	Y30	Z30	X31	Y31	Z31	X32	Y32	Z32	X33	Y33	Z33	

36	28.107500000000	734.779444304299	989.748013941011	452.155570302144	880.742220242262	1407.708800167999	235.214663204725	1001.477387607548	1353.397797438384	388.567322109704	935.063546485297	1443.042437762955	562.964464001001	895.071599163021	1481.961981168802	383.693448506497	967.532416758122	932.271914261253	561.730222503823	945.127043227171	954.775850580142	287.885131932966	992.971927416478	719.193637475185	535.860963084032	905.128984326404	613.125416616220	599.213458335331	980.414312430961	551.564609244702	524.386220712992	965.803496527828	445.822915799856	542.180102095608	1027.103578068340	762.785467954698	319.514938253118	965.003055892224	634.102313381655	253.847047962220	1063.010296006004	573.305231396776	317.743298591476	1075.991261284142	502.995226562711	324.628506168737	1055.759184979458	426.686926341548	315.141289141300	977.468328773349	305.445287308049	261.933830987318	1039.717358905416	198.106423049795	330.362390176100	891.139950925816	377.427551343945	547.472959505821	772.684558662249	328.064956455956	604.631942999904	766.385669533714	219.665773697481	552.250688720166	572.154232015892	125.771613806036	515.970271323868	743.449814091887	110.671773105471	571.664112185333	636.593076072230	88.633282392232	597.778895777024	828.321877077329	34.129577233033	612.962892601845	922.092607975430	38.130894284313	369.358631693564	995.966804459664	35.113545154581	288.459396473336	1078.105668876309	98.258168307726	315.390197566197	1206.818579723804	49.579116797141	287.406714557132	809.718190611729	1055.760431888982	148.326811935559	858.459120452960	800.124785552558	130.314508787406	1010.887473512643	1107.612496008989	689.582717968653	1217.254637744081	1009.403188003040	575.337034055184	
37	28.120285714286	736.173339401562	990.756660566906	449.088269202133	884.234874513307	1408.413894574459	232.026559550650	1003.518755268171	1354.450133041531	386.417966280830	935.891432505060	1444.565952024323	560.076282609491	897.471892129544	1482.965265058245	380.353474613057	968.482326197294	933.545796672036	559.815727719394	947.395950221028	955.908157826846	285.904162564922	999.863761971678	722.401587364193	534.869705506956	915.484195359632	614.373886807646	598.709245672741	993.471883459026	554.232950739509	524.749333305087	980.640264089065	447.078019066930	543.719017837685	1028.283082062883	762.366563218742	317.069091779867	964.757104346068	634.122078115153	252.724825027666	1062.067409077341	572.611528492851	316.939902070095	1074.446537542615	502.399176509137	324.324800515729	1053.673625094878	426.161050832690	314.846839723035	974.642933696993	305.446251501432	261.803885666304	1035.691689272395	197.814109503625	330.538309388490	903.954311146600	379.381263228531	548.347802436117	783.203212785095	334.339400492612	604.345808096633	773.977977455118	225.734973168168	552.869906905535	577.049196119919	142.106853116509	514.968555950638	746.271152071991	114.558522431722	572.211884168049	637.857613901901	100.088774480989	597.006281066498	823.838221119309	32.938269409005	613.057706080039	916.994598412607	38.090175080009	369.324480896311	990.866690623760	35.158682191957	288.449136738905	1072.974118581737	98.241536010968	315.482784126217	1201.687129190510	49.696761396942	287.329888583523	816.864935124590	1055.937949629923	144.138540509688	871.794257748141	801.339760573409	126.874846939862	1004.080356194103	1107.931952026347	689.044231886386	1207.243071971908	995.726958737185	580.629958302517	
38	28.133071428571	737.362324400415	991.714822084545	446.021167655600	887.741535602501	1409.173538021065	229.019831045171	1005.497293491300	1355.440638153150	384.473161369816	936.579984706109	1445.862510400873	557.426621035713	899.811121301258	1483.916269406355	377.263532252588	969.267774752562	934.758526332664	557.825421648930	949.496840529930	956.882773775415	283.911625276687	1006.728754237755	725.915138619012	534.001216517356	925.930909876692	616.048521861254	598.462238897910	1006.524775665371	557.439903952973	525.292543063883	995.584497700912	449.042195307006	545.275873238158	1029.133480247446	761.855139664024	314.889048979166	964.421366018338	634.125152330932	251.584432259038	1060.907592579313	571.895472107670	316.262684078392	1072.643906418379	501.739840153445	324.044280757586	1051.358030306068	425.586010356973	314.555460740222	971.656254171887	305.357774456589	261.635516617739	1031.561937265560	197.482683012977	330.701921861457	917.156446665990	381.887052837703	549.281840012127	794.375044669975	340.965793958028	604.179003162229	782.410101376358	232.271137809129	553.562506485148	583.525755587691	159.022448235226	513.922689629613	749.900706073123	118.944098818811	572.679951336105	640.301917694265	112.260877311008	596.189164170068	819.738854237775	31.705181844625	613.168873225837	911.854675588247	38.042455248350	369.310823701825	985.717341066060	35.166624978031	288.453203511738	1067.837749553140	98.161416240743	315.588156809065	1196.544163545460	49.633888652383	287.260105228563	823.856279842772	1056.278858223151	139.990079322419	885.392417784139	802.956620451419	123.496947869954	996.946289830650	1108.081129763704	688.465336293963	1196.173133577667	981.861996824747	586.821197200179	
39	28.145857142857	738.361895648325	992.590124907137	442.970601573259	891.242481995328	1409.967158772990	226.220383981912	1007.418241055410	1356.338150572978	382.744555924345	937.152199775609	1446.906280287498	555.032620971745	902.088515846978	1484.797539770980	374.450388999780	969.910773112694	935.907201374573	555.769928003889	951.449644866257	957.688449059319	281.905799200288	1013.464524343447	729.706633118203	533.188239903020	936.343117660980	618.155122706378	598.407970414669	1019.384959063532	561.180001919408	525.905872844564	1010.464683077301	451.686052987799	546.757302095179	1029.745345237711	761.306027981003	313.019944350869	964.104551893402	634.127017735807	250.426263905802	1059.646289693040	571.182237668997	315.696310236775	1070.706110811830	501.038199684002	323.783728427128	1048.930293169625	424.971187626943	314.268183058812	968.613460765660	305.205257506369	261.403429500505	1027.390771639210	197.116721290204	330.847263837570	930.556425853400	384.930849001607	550.207139739857	806.033990848920	347.840967549868	604.111395395643	791.564213037725	239.154664975472	554.299300083196	591.478941320640	176.052715228761	512.910552847799	754.348182877906	123.779753574450	573.054820007553	643.982747937309	124.813650537359	595.371894838397	816.304612197164	30.538285375984	613.279624699237	906.690295134364	37.995417395799	369.304726707379	980.541100368539	35.150352424925	288.463136638726	1062.714947628037	98.033657505243	315.705359589960	1191.408230683336	49.416065881771	287.206396443565	830.692221170185	1056.752456869183	135.901590249337	899.173323574250	804.962261629211	120.199978909450	989.545628256898	1108.031979885363	687.827543970688	1184.000908903853	967.887857561478	593.901118217540	
40	28.158642857143	739.196243004506	993.369567675511	439.950873466672	894.716014116661	1410.790765610680	223.648499504604	1009.285738943297	1357.129436555407	381.234589304234	937.630094952514	1447.694848883876	552.902688859840	904.307376816897	1485.608561103365	371.932520318736	970.434507860301	937.010311599737	553.679532127088	953.279437279783	958.335387550738	279.894621514130	1019.980721156744	733.749105446921	532.357941830365	946.609325533695	620.689089206385	598.467172123635	1031.890174670576	565.435521093252	526.472503739804	1025.133927300201	454.969365718515	548.072916913841	1030.205209282229	760.760141754678	311.458286445579	963.853311005062	634.130406609412	249.261005688247	1058.361031385853	570.483337669199	315.206467416224	1068.720344977288	500.312813956340	323.533825083468	1046.471932045910	424.328281463121	313.981512330711	965.576325533058	305.014178965177	261.102881760249	1023.220244673023	196.724584810601	330.967519991983	943.987282845239	388.482894226505	551.062126512726	818.024149765518	354.851251444438	604.119865292423	801.327507148132	246.245699574890	555.052700136412	600.734677814222	192.683957891838	512.024826054541	759.652038260048	128.979425504852	573.335379235279	648.936007059173	137.344913749422	594.611402077654	813.896656977386	29.588654872040	613.358989882289	901.516627321039	37.954457160646	369.296893551978	975.356591061587	35.122024510462	288.472629976229	1057.615709576738	97.877203535898	315.830607141955	1186.290942453370	49.081992552723	287.172212686472	837.390552792254	1057.342646786138	131.891704997696	913.059439582992	807.350824583937	117.006235167305	981.942979202041	1107.784460554030	687.112854813110	1170.679969265199	953.916936265725	601.831994032178	
41	28.171428571429	739.898582731222	994.057115137271	436.975766667632	898.141036075288	1411.653396625240	221.317211121028	1011.102417350123	1357.818584218279	379.936508194415	938.031360148602	1448.247360112363	551.036157670529	906.473456565957	1486.362721448221	369.718004443328	970.863005665954	938.099963722616	551.602052895049	955.015485107983	958.851663505557	277.897393059112	1026.202518641893	738.014134095413	531.441055615677	956.636199118380	623.634468493212	598.555476744149	1043.908121969797	570.174830791449	526.880187450536	1039.470866883778	458.844399892679	549.140159427300	1030.584651933338	760.241429185006	310.161341798219	963.659603277660	634.130644724745	248.105821535256	1057.087818697949	569.799319137679	314.750371089437	1066.732489267118	499.578479975986	323.282932413738	1044.023765448291	423.670338018853	313.690472283169	962.566117542729	304.807184374912	260.743572104252	1019.070657314114	196.316958953552	331.056845424861	957.311972822433	392.497229435082	551.795095127303	830.207382461343	361.873170204800	604.180917738482	811.601375727132	253.386766898078	555.798249752854	611.066168634015	208.381905256402	511.364092412605	765.882039127110	134.421036563815	573.532029135255	655.178639213455	149.410585026586	593.972910669042	812.943067951900	29.029898888395	613.366012776027	896.344883663434	37.922897967003	369.281982559959	970.177044545499	35.091516752577	288.477778747654	1052.542786028752	97.709884569512	315.958561170978	1181.197151351979	48.673449373476	287.156675905642	843.980209139435	1058.047095447384	127.977592647334	926.977017648097	810.121654110696	113.940143179010	974.206111811702	1107.365738885206	686.305384894868	1156.171970476301	940.102187444682	610.545028102828	
